<?xml version="1.0" encoding="UTF-8"?>
<!DOCTYPE svg PUBLIC "-//W3C//DTD SVG 1.1//EN" "http://www.w3.org/Graphics/SVG/1.1/DTD/svg11.dtd">
<svg xmlns="http://www.w3.org/2000/svg" version="1.1" width="512px" height="512px" style="shape-rendering:geometricPrecision; text-rendering:geometricPrecision; image-rendering:optimizeQuality; fill-rule:evenodd; clip-rule:evenodd" xmlns:xlink="http://www.w3.org/1999/xlink">
<g><path style="opacity:0.982" fill="#020201" d="M 251.5,-0.5 C 256.833,-0.5 262.167,-0.5 267.5,-0.5C 314.021,5.36761 344.521,30.7009 359,75.5C 366.428,105.354 361.928,133.188 345.5,159C 354.868,173.094 360.701,188.594 363,205.5C 365.397,218.439 365.897,231.439 364.5,244.5C 367.515,250.87 369.682,257.537 371,264.5C 371.333,282.167 371.667,299.833 372,317.5C 398.983,322.825 424.149,332.658 447.5,347C 475.491,367.622 480.657,392.789 463,422.5C 449.795,436.86 433.962,447.36 415.5,454C 391.146,462.671 366.146,468.671 340.5,472C 320.44,493.863 295.773,507.029 266.5,511.5C 256.167,511.5 245.833,511.5 235.5,511.5C 206.218,507.025 181.552,493.859 161.5,472C 128.691,467.966 97.3575,458.966 67.5,445C 51.0972,436.931 39.0972,424.597 31.5,408C 25.2228,385.163 31.2228,366.163 49.5,351C 69.6593,336.426 91.9927,326.426 116.5,321C 130.4,317.82 144.4,315.153 158.5,313C 161.71,311.799 164.377,309.799 166.5,307C 153.335,303.692 144.168,295.858 139,283.5C 131.028,234.696 123.528,185.863 116.5,137C 117.941,122.894 124.941,112.56 137.5,106C 143.506,104.166 149.506,102.332 155.5,100.5C 162.362,42.6435 194.362,8.97685 251.5,-0.5 Z M 133.5,364.5 C 134.043,364.56 134.376,364.893 134.5,365.5C 131.838,378.34 130.838,391.34 131.5,404.5C 117.888,402.129 105.221,397.296 93.5,390C 91.981,388.649 90.6477,387.149 89.5,385.5C 94.2407,379.621 100.241,375.454 107.5,373C 116.249,370.027 124.916,367.194 133.5,364.5 Z M 369.5,365.5 C 383.347,368.06 396.347,372.893 408.5,380C 413.833,383.333 413.833,386.667 408.5,390C 396.779,397.296 384.112,402.129 370.5,404.5C 371.903,392.231 371.236,380.064 368.5,368C 368.743,367.098 369.077,366.265 369.5,365.5 Z"/></g>
<g><path style="opacity:1" fill="#f2f2f2" d="M 280.5,19.5 C 286.555,23.375 292.222,27.875 297.5,33C 297.272,33.3988 296.938,33.5654 296.5,33.5C 264.77,31.542 237.604,41.542 215,63.5C 195,87.5755 194.334,112.242 213,137.5C 235.217,161.303 262.717,172.303 295.5,170.5C 296.239,170.369 296.906,170.536 297.5,171C 292.553,175.794 287.22,179.961 281.5,183.5C 244.055,191.865 213.555,180.865 190,150.5C 168.673,116.333 169.339,82.6662 192,49.5C 215.464,21.845 244.964,11.845 280.5,19.5 Z"/></g>
<g><path style="opacity:1" fill="#c0c9cc" d="M 280.5,19.5 C 292.862,22.3478 303.862,27.8478 313.5,36C 307.715,35.5786 302.048,34.7452 296.5,33.5C 296.938,33.5654 297.272,33.3988 297.5,33C 292.222,27.875 286.555,23.375 280.5,19.5 Z"/></g>
<g><path style="opacity:0.934" fill="#000000" d="M 453.5,24.5 C 459.856,23.6599 463.69,26.3266 465,32.5C 465.498,35.4816 465.665,38.4816 465.5,41.5C 469.936,41.2101 474.27,41.7101 478.5,43C 483.66,48.0889 483.66,53.0889 478.5,58C 474.3,59.3674 469.967,59.8674 465.5,59.5C 465.695,63.9152 465.195,68.2486 464,72.5C 458.667,77.8333 453.333,77.8333 448,72.5C 447.501,68.1794 447.334,63.8461 447.5,59.5C 443.486,59.6655 439.486,59.4988 435.5,59C 428.855,54.4197 428.189,49.0864 433.5,43C 438.066,41.6908 442.733,41.1908 447.5,41.5C 447.334,37.4862 447.501,33.4862 448,29.5C 449.107,26.887 450.94,25.2203 453.5,24.5 Z"/></g>
<g><path style="opacity:1" fill="#01a7f2" d="M 312.5,53.5 C 317.921,57.6743 320.588,63.0076 320.5,69.5C 308.613,61.9298 295.613,58.7631 281.5,60C 277.723,62.9547 276.557,66.788 278,71.5C 278.833,73.6667 280.333,75.1667 282.5,76C 292.932,76.0239 302.599,78.6906 311.5,84C 317.769,90.1277 320.936,97.6277 321,106.5C 322.638,108.734 324.805,110.067 327.5,110.5C 326.137,123.092 322.637,135.092 317,146.5C 315.333,147.733 313.833,149.067 312.5,150.5C 285.641,157.135 260.641,152.968 237.5,138C 217.128,123.106 212.295,104.272 223,81.5C 242.006,58.4878 266.506,48.3211 296.5,51C 301.863,51.7273 307.197,52.5607 312.5,53.5 Z"/></g>
<g><path style="opacity:1" fill="#0274b8" d="M 312.5,53.5 C 320.974,55.3786 328.807,58.7119 336,63.5C 348.545,89.141 348.545,114.808 336,140.5C 328.932,145.617 321.099,148.95 312.5,150.5C 313.833,149.067 315.333,147.733 317,146.5C 322.637,135.092 326.137,123.092 327.5,110.5C 335.769,108.305 338.603,102.971 336,94.5C 334.254,83.9459 329.087,75.6125 320.5,69.5C 320.588,63.0076 317.921,57.6743 312.5,53.5 Z"/></g>
<g><path style="opacity:1" fill="#000203" d="M 320.5,69.5 C 329.087,75.6125 334.254,83.9459 336,94.5C 338.603,102.971 335.769,108.305 327.5,110.5C 324.805,110.067 322.638,108.734 321,106.5C 320.936,97.6277 317.769,90.1277 311.5,84C 302.599,78.6906 292.932,76.0239 282.5,76C 280.333,75.1667 278.833,73.6667 278,71.5C 276.557,66.788 277.723,62.9547 281.5,60C 295.613,58.7631 308.613,61.9298 320.5,69.5 Z"/></g>
<g><path style="opacity:1" fill="#ccd5d9" d="M 157.5,117.5 C 158.117,117.611 158.617,117.944 159,118.5C 160.961,129.049 164.128,139.216 168.5,149C 164.883,159.702 163.216,170.702 163.5,182C 165.147,211.792 165.981,241.625 166,271.5C 166.64,277.939 168.807,283.772 172.5,289C 163.394,288.236 157.561,283.402 155,274.5C 148.726,228.581 141.892,182.747 134.5,137C 135.333,131.339 138,126.672 142.5,123C 147.447,120.692 152.447,118.859 157.5,117.5 Z"/></g>
<g><path style="opacity:1" fill="#c2cace" d="M 281.5,183.5 C 287.22,179.961 292.553,175.794 297.5,171C 296.906,170.536 296.239,170.369 295.5,170.5C 300.718,169.65 306.052,168.65 311.5,167.5C 313.373,167.482 313.706,167.982 312.5,169C 303.19,175.988 292.857,180.821 281.5,183.5 Z"/></g>
<g><path style="opacity:1" fill="#ccd5d9" d="M 181.5,168.5 C 191.259,179.092 202.592,187.592 215.5,194C 218.013,200.685 222.013,206.351 227.5,211C 247.5,221.333 267.5,231.667 287.5,242C 293.949,248.636 295.115,256.136 291,264.5C 285.357,271.702 278.191,273.869 269.5,271C 251.5,262 233.5,253 215.5,244C 187.779,226.38 176.446,201.213 181.5,168.5 Z"/></g>
<g><path style="opacity:1" fill="#ccd5d9" d="M 332.5,173.5 C 333.496,173.414 334.329,173.748 335,174.5C 347.035,198.707 350.368,224.04 345,250.5C 340.763,261.369 332.93,265.536 321.5,263C 316.572,261.073 313.406,257.573 312,252.5C 312.19,240.505 312.19,228.505 312,216.5C 310.945,208.836 308.778,201.502 305.5,194.5C 311.13,190.68 316.796,186.846 322.5,183C 326.334,180.332 329.667,177.165 332.5,173.5 Z"/></g>
<g><path style="opacity:0.934" fill="#000000" d="M 50.5,178.5 C 62.5516,177.91 66.8849,183.577 63.5,195.5C 67.5138,195.334 71.5138,195.501 75.5,196C 81.5813,199.991 82.5813,204.991 78.5,211C 73.777,213.235 68.777,214.069 63.5,213.5C 63.6655,217.514 63.4988,221.514 63,225.5C 58.747,231.214 53.747,231.881 48,227.5C 45.8964,223.078 45.0631,218.412 45.5,213.5C 41.0638,213.79 36.7305,213.29 32.5,212C 27.3398,206.911 27.3398,201.911 32.5,197C 36.6996,195.633 41.0329,195.133 45.5,195.5C 44.5544,188.928 46.2211,183.261 50.5,178.5 Z"/></g>
<g><path style="opacity:1" fill="#ededed" d="M 252.5,205.5 C 258.5,204.833 264.5,204.167 270.5,203.5C 276.851,202.46 283.184,201.627 289.5,201C 294.062,208.975 295.729,217.475 294.5,226.5C 280.416,219.458 266.416,212.458 252.5,205.5 Z"/></g>
<g><path style="opacity:1" fill="#5a5a5a" d="M 270.5,203.5 C 264.5,204.167 258.5,204.833 252.5,205.5C 251.711,205.217 251.044,204.717 250.5,204C 257.158,203.5 263.825,203.334 270.5,203.5 Z"/></g>
<g><path style="opacity:1" fill="#7c7c7c" d="M 184.5,240.5 C 183.506,250.653 183.172,260.986 183.5,271.5C 182.177,260.993 182.177,250.326 183.5,239.5C 184.107,239.624 184.44,239.957 184.5,240.5 Z"/></g>
<g><path style="opacity:1" fill="#f3f3f3" d="M 184.5,240.5 C 191.111,247.941 198.778,254.108 207.5,259C 226.167,268.333 244.833,277.667 263.5,287C 273.374,290.612 283.04,290.112 292.5,285.5C 293.667,315.494 293.833,345.494 293,375.5C 286.604,390.941 275.771,395.108 260.5,388C 256.072,384.908 253.239,380.741 252,375.5C 251.667,354.167 251.333,332.833 251,311.5C 249.311,306.475 246.144,302.641 241.5,300C 227.209,296.177 212.876,292.511 198.5,289C 190.42,285.757 185.42,279.924 183.5,271.5C 183.172,260.986 183.506,250.653 184.5,240.5 Z"/></g>
<g><path style="opacity:0.937" fill="#000000" d="M 417.5,255.5 C 429.493,254.858 433.827,260.525 430.5,272.5C 434.846,272.334 439.179,272.501 443.5,273C 448.833,278.333 448.833,283.667 443.5,289C 439.27,290.29 434.936,290.79 430.5,290.5C 430.666,294.514 430.499,298.514 430,302.5C 422.781,309.776 417.115,308.776 413,299.5C 412.502,296.518 412.335,293.518 412.5,290.5C 407.588,290.937 402.922,290.104 398.5,288C 394.108,282.298 394.775,277.298 400.5,273C 404.486,272.501 408.486,272.334 412.5,272.5C 411.374,265.879 413.041,260.213 417.5,255.5 Z"/></g>
<g><path style="opacity:1" fill="#cdd6da" d="M 327.5,374.5 C 331.576,370.698 334.409,366.031 336,360.5C 336.83,333.664 336.664,306.997 335.5,280.5C 342.127,278.739 347.96,275.406 353,270.5C 353.667,300.167 353.667,329.833 353,359.5C 348.439,371.618 339.939,376.618 327.5,374.5 Z"/></g>
<g><path style="opacity:1" fill="#f0f0f0" d="M 335.5,280.5 C 336.664,306.997 336.83,333.664 336,360.5C 334.409,366.031 331.576,370.698 327.5,374.5C 318.38,371.878 312.88,365.878 311,356.5C 310.829,329.928 310.329,303.428 309.5,277C 313.401,278.266 317.401,279.599 321.5,281C 326.22,281.717 330.886,281.55 335.5,280.5 Z"/></g>
<g><path style="opacity:1" fill="#fc9601" d="M 232.5,314.5 C 233.155,334.598 233.822,354.598 234.5,374.5C 238.055,396.057 250.722,407.39 272.5,408.5C 289.974,407.852 302.141,399.518 309,383.5C 319.303,391.498 330.803,393.665 343.5,390C 346.864,388.901 350.03,387.401 353,385.5C 353.657,393.523 353.49,401.523 352.5,409.5C 285.217,419.74 217.884,420.074 150.5,410.5C 144.297,365.918 159.631,330.918 196.5,305.5C 208.404,308.913 220.404,311.913 232.5,314.5 Z"/></g>
<g><path style="opacity:1" fill="#a86401" d="M 232.5,314.5 C 234.488,334.139 235.155,354.139 234.5,374.5C 233.822,354.598 233.155,334.598 232.5,314.5 Z"/></g>
<g><path style="opacity:1" fill="#fae638" d="M 402.5,344.5 C 411.344,350.485 419.844,357.152 428,364.5C 443.725,386.784 441.558,407.284 421.5,426C 414.368,430.878 407.368,435.712 400.5,440.5C 370.922,449.975 340.588,455.808 309.5,458C 248.316,463.734 187.65,460.401 127.5,448C 103.062,442.973 80.729,433.306 60.5,419C 40.7654,398.548 42.0988,379.548 64.5,362C 89.929,345.802 117.596,336.302 147.5,333.5C 145.102,337.129 143.102,340.962 141.5,345C 127.147,347.755 113.147,351.755 99.5,357C 88.2168,361.215 79.3835,368.382 73,378.5C 70.791,390.581 74.9577,399.748 85.5,406C 103.975,416.047 123.642,422.714 144.5,426C 214.807,437.292 285.14,437.292 355.5,426C 376.595,423.061 396.595,416.727 415.5,407C 432.961,395.413 434.628,382.079 420.5,367C 405.354,357.67 389.021,351.17 371.5,347.5C 370.509,343.555 370.176,339.555 370.5,335.5C 381.411,337.746 392.078,340.746 402.5,344.5 Z M 133.5,364.5 C 124.916,367.194 116.249,370.027 107.5,373C 100.241,375.454 94.2407,379.621 89.5,385.5C 90.6477,387.149 91.981,388.649 93.5,390C 105.221,397.296 117.888,402.129 131.5,404.5C 130.838,391.34 131.838,378.34 134.5,365.5C 134.376,364.893 134.043,364.56 133.5,364.5 Z M 369.5,365.5 C 369.077,366.265 368.743,367.098 368.5,368C 371.236,380.064 371.903,392.231 370.5,404.5C 384.112,402.129 396.779,397.296 408.5,390C 413.833,386.667 413.833,383.333 408.5,380C 396.347,372.893 383.347,368.06 369.5,365.5 Z"/></g>
<g><path style="opacity:1" fill="#f8d433" d="M 402.5,344.5 C 415.927,348.547 428.26,354.713 439.5,363C 462.09,382.299 462.09,401.633 439.5,421C 427.589,429.622 414.589,436.122 400.5,440.5C 407.368,435.712 414.368,430.878 421.5,426C 441.558,407.284 443.725,386.784 428,364.5C 419.844,357.152 411.344,350.485 402.5,344.5 Z"/></g>
<g><path style="opacity:1" fill="#f89401" d="M 286.5,476.5 C 289.85,476.335 293.183,476.502 296.5,477C 290.451,482.013 284.118,486.513 277.5,490.5C 246.373,499.034 217.707,493.868 191.5,475C 209.952,476.139 228.452,476.972 247,477.5C 260.169,477.191 273.336,476.858 286.5,476.5 Z"/></g>
<g><path style="opacity:1" fill="#dc7000" d="M 277.5,490.5 C 284.118,486.513 290.451,482.013 296.5,477C 293.183,476.502 289.85,476.335 286.5,476.5C 294.658,475.303 302.992,474.803 311.5,475C 301.288,482.606 289.955,487.772 277.5,490.5 Z"/></g>
</svg>
